<svg width="1481" height="230" viewBox="0 0 1481 230" fill="none" xmlns="http://www.w3.org/2000/svg">
<path d="M338.84 198.22C327.8 198.22 317.757 195.767 308.71 190.86C299.817 185.8 292.687 178.517 287.32 169.01C282.107 159.35 279.5 147.62 279.5 133.82V95.18C279.5 74.48 285.327 58.61 296.98 47.57C308.633 36.3767 324.427 30.78 344.36 30.78C364.14 30.78 379.397 36.07 390.13 46.65C401.017 57.0767 406.46 71.26 406.46 89.2V90.12H376.56V88.28C376.56 82.6067 375.333 77.47 372.88 72.87C370.58 68.27 367.053 64.6667 362.3 62.06C357.547 59.3 351.567 57.92 344.36 57.92C333.627 57.92 325.193 61.2167 319.06 67.81C312.927 74.4033 309.86 83.3733 309.86 94.72V134.28C309.86 145.473 312.927 154.52 319.06 161.42C325.193 168.167 333.78 171.54 344.82 171.54C355.86 171.54 363.91 168.627 368.97 162.8C374.03 156.973 376.56 149.613 376.56 140.72V138.42H338.38V112.66H406.46V195H378.4V179.59H374.26C373.187 182.197 371.423 184.957 368.97 187.87C366.67 190.783 363.143 193.237 358.39 195.23C353.637 197.223 347.12 198.22 338.84 198.22ZM436.385 195V80.92H464.905V93.8H469.045C470.732 89.2 473.492 85.8267 477.325 83.68C481.312 81.5333 485.912 80.46 491.125 80.46H504.925V106.22H490.665C483.305 106.22 477.248 108.213 472.495 112.2C467.742 116.033 465.365 122.013 465.365 130.14V195H436.385ZM575.514 198.22C564.167 198.22 554.124 195.843 545.384 191.09C536.797 186.183 530.05 179.36 525.144 170.62C520.39 161.727 518.014 151.3 518.014 139.34V136.58C518.014 124.62 520.39 114.27 525.144 105.53C529.897 96.6367 536.567 89.8133 545.154 85.06C553.74 80.1533 563.707 77.7 575.054 77.7C586.247 77.7 595.984 80.23 604.264 85.29C612.544 90.1967 618.984 97.0967 623.584 105.99C628.184 114.73 630.484 124.927 630.484 136.58V146.47H547.454C547.76 154.29 550.674 160.653 556.194 165.56C561.714 170.467 568.46 172.92 576.434 172.92C584.56 172.92 590.54 171.157 594.374 167.63C598.207 164.103 601.12 160.193 603.114 155.9L626.804 168.32C624.657 172.307 621.514 176.677 617.374 181.43C613.387 186.03 608.02 190.017 601.274 193.39C594.527 196.61 585.94 198.22 575.514 198.22ZM547.684 124.85H601.044C600.43 118.257 597.747 112.967 592.994 108.98C588.394 104.993 582.337 103 574.824 103C567.004 103 560.794 104.993 556.194 108.98C551.594 112.967 548.757 118.257 547.684 124.85ZM708.258 198.22C696.911 198.22 686.868 195.843 678.128 191.09C669.541 186.183 662.794 179.36 657.888 170.62C653.134 161.727 650.758 151.3 650.758 139.34V136.58C650.758 124.62 653.134 114.27 657.888 105.53C662.641 96.6367 669.311 89.8133 677.898 85.06C686.484 80.1533 696.451 77.7 707.798 77.7C718.991 77.7 728.728 80.23 737.008 85.29C745.288 90.1967 751.728 97.0967 756.328 105.99C760.928 114.73 763.228 124.927 763.228 136.58V146.47H680.198C680.504 154.29 683.418 160.653 688.938 165.56C694.458 170.467 701.204 172.92 709.178 172.92C717.304 172.92 723.284 171.157 727.118 167.63C730.951 164.103 733.864 160.193 735.858 155.9L759.548 168.32C757.401 172.307 754.258 176.677 750.118 181.43C746.131 186.03 740.764 190.017 734.018 193.39C727.271 196.61 718.684 198.22 708.258 198.22ZM680.428 124.85H733.788C733.174 118.257 730.491 112.967 725.738 108.98C721.138 104.993 715.081 103 707.568 103C699.748 103 693.538 104.993 688.938 108.98C684.338 112.967 681.501 118.257 680.428 124.85ZM789.022 195V80.92H817.542V95.87H821.682C823.522 91.8833 826.972 88.1267 832.032 84.6C837.092 80.92 844.759 79.08 855.032 79.08C863.925 79.08 871.669 81.15 878.262 85.29C885.009 89.2767 890.222 94.8733 893.902 102.08C897.582 109.133 899.422 117.413 899.422 126.92V195H870.442V129.22C870.442 120.633 868.295 114.193 864.002 109.9C859.862 105.607 853.882 103.46 846.062 103.46C837.169 103.46 830.269 106.45 825.362 112.43C820.455 118.257 818.002 126.46 818.002 137.04V195H789.022ZM988.229 195V34H1054.47C1064.59 34 1073.48 36.07 1081.15 40.21C1088.97 44.1967 1095.03 49.87 1099.32 57.23C1103.77 64.59 1105.99 73.33 1105.99 83.45V86.67C1105.99 96.6367 1103.69 105.377 1099.09 112.89C1094.64 120.25 1088.51 126 1080.69 130.14C1073.02 134.127 1064.28 136.12 1054.47 136.12H1018.59V195H988.229ZM1018.59 108.52H1051.48C1058.69 108.52 1064.51 106.527 1068.96 102.54C1073.41 98.5533 1075.63 93.11 1075.63 86.21V83.91C1075.63 77.01 1073.41 71.5667 1068.96 67.58C1064.51 63.5933 1058.69 61.6 1051.48 61.6H1018.59V108.52ZM1161.13 198.22C1153 198.22 1145.72 196.84 1139.28 194.08C1132.84 191.167 1127.7 187.027 1123.87 181.66C1120.19 176.14 1118.35 169.47 1118.35 161.65C1118.35 153.83 1120.19 147.313 1123.87 142.1C1127.7 136.733 1132.92 132.747 1139.51 130.14C1146.26 127.38 1153.92 126 1162.51 126H1193.79V119.56C1193.79 114.193 1192.1 109.823 1188.73 106.45C1185.36 102.923 1179.99 101.16 1172.63 101.16C1165.42 101.16 1160.06 102.847 1156.53 106.22C1153 109.44 1150.7 113.657 1149.63 118.87L1122.95 109.9C1124.79 104.073 1127.7 98.7833 1131.69 94.03C1135.83 89.1233 1141.27 85.2133 1148.02 82.3C1154.92 79.2333 1163.28 77.7 1173.09 77.7C1188.12 77.7 1200 81.4567 1208.74 88.97C1217.48 96.4833 1221.85 107.37 1221.85 121.63V164.18C1221.85 168.78 1224 171.08 1228.29 171.08H1237.49V195H1218.17C1212.5 195 1207.82 193.62 1204.14 190.86C1200.46 188.1 1198.62 184.42 1198.62 179.82V179.59H1194.25C1193.64 181.43 1192.26 183.883 1190.11 186.95C1187.96 189.863 1184.59 192.47 1179.99 194.77C1175.39 197.07 1169.1 198.22 1161.13 198.22ZM1166.19 174.76C1174.32 174.76 1180.91 172.537 1185.97 168.09C1191.18 163.49 1193.79 157.433 1193.79 149.92V147.62H1164.58C1159.21 147.62 1155 148.77 1151.93 151.07C1148.86 153.37 1147.33 156.59 1147.33 160.73C1147.33 164.87 1148.94 168.243 1152.16 170.85C1155.38 173.457 1160.06 174.76 1166.19 174.76ZM1294.07 195C1286.56 195 1280.42 192.7 1275.67 188.1C1271.07 183.347 1268.77 177.06 1268.77 169.24V104.84H1240.25V80.92H1268.77V45.5H1297.75V80.92H1329.03V104.84H1297.75V164.18C1297.75 168.78 1299.9 171.08 1304.19 171.08H1326.27V195H1294.07ZM1355.26 195V34H1384.24V94.95H1388.38C1389.61 92.4967 1391.53 90.0433 1394.13 87.59C1396.74 85.1367 1400.19 83.1433 1404.48 81.61C1408.93 79.9233 1414.53 79.08 1421.27 79.08C1430.17 79.08 1437.91 81.15 1444.5 85.29C1451.25 89.2767 1456.46 94.8733 1460.14 102.08C1463.82 109.133 1465.66 117.413 1465.66 126.92V195H1436.68V129.22C1436.68 120.633 1434.54 114.193 1430.24 109.9C1426.1 105.607 1420.12 103.46 1412.3 103.46C1403.41 103.46 1396.51 106.45 1391.6 112.43C1386.7 118.257 1384.24 126.46 1384.24 137.04V195H1355.26Z" fill="white"/>
<path d="M226.211 187.279C224.367 184.114 221.956 181.377 219.12 179.228C216.284 177.08 213.078 175.562 209.692 174.764C196.735 171.515 185.498 162.868 178.435 150.713C171.373 138.557 169.061 123.882 172.003 109.894C173.134 104.488 172.758 98.8414 170.923 93.6643C169.087 88.4871 165.874 84.0102 161.687 80.7958C157.499 77.5815 152.525 75.773 147.387 75.597C142.249 75.4214 137.178 76.8861 132.81 79.8077C128.442 82.7297 124.972 86.9776 122.836 92.0187C120.7 97.0601 119.993 102.669 120.804 108.142C121.614 113.615 123.907 118.708 127.394 122.78C130.88 126.853 135.405 129.724 140.399 131.033C146.861 132.605 152.972 135.536 158.381 139.659C163.79 143.781 168.391 149.015 171.921 155.059C175.45 161.103 177.839 167.838 178.949 174.879C180.06 181.92 179.871 189.129 178.393 196.091C177.518 200.579 177.674 205.23 178.848 209.638C180.022 214.046 182.178 218.078 185.128 221.382C188.078 224.686 191.733 227.162 195.773 228.594C199.814 230.026 204.119 230.371 208.311 229.598C212.504 228.826 216.458 226.959 219.829 224.161C223.199 221.363 225.884 217.719 227.649 213.547C229.413 209.373 230.205 204.799 229.955 200.22C229.704 195.642 228.419 191.199 226.211 187.279Z" fill="white"/>
<path d="M65.846 156.062C70.4089 158.747 75.6113 159.901 80.7862 159.375C85.9614 158.85 90.8724 156.669 94.8901 153.113C98.9077 149.556 101.848 144.787 103.334 139.417C104.821 134.046 104.784 128.319 103.231 122.971C101.262 116.151 100.56 108.979 101.167 101.867C101.773 94.754 103.675 87.8403 106.765 81.5222C109.855 75.204 114.07 69.6053 119.17 65.0471C124.271 60.4889 130.155 57.0613 136.486 54.9601C141.396 53.3018 145.742 50.1143 148.976 45.7992C152.21 41.4841 154.188 36.234 154.661 30.7093C155.135 25.1847 154.082 19.6325 151.635 14.7519C149.189 9.87098 145.458 5.8793 140.913 3.27937C136.367 0.679439 131.21 -0.413018 126.091 0.1401C120.971 0.692874 116.117 2.86608 112.14 6.38662C108.163 9.9068 105.24 14.6169 103.74 19.9239C102.24 25.2309 102.229 30.8977 103.709 36.2113C107.594 49.929 106.28 64.7478 100.056 77.4237C93.8312 90.0996 83.2032 99.6005 70.4974 103.847C65.4815 105.415 61.0177 108.571 57.6839 112.906C54.3501 117.24 52.2998 122.554 51.7986 128.159C51.2978 133.764 52.3688 139.403 54.8733 144.344C57.3779 149.285 61.2004 153.302 65.846 155.875V156.062Z" fill="white"/>
<path d="M132.965 151.468C129.497 151.599 126.089 152.476 122.939 154.045C119.789 155.615 116.961 157.846 114.621 160.608C105.541 171.079 92.9857 177.248 79.6998 177.767C66.4135 178.285 53.4774 173.11 43.7198 163.374C41.1986 160.823 38.2325 158.838 34.9936 157.535C31.755 156.231 28.3082 155.635 24.8537 155.781C20.6016 155.997 16.4629 157.332 12.7994 159.67C9.13571 162.007 6.05875 165.276 3.83656 169.19C1.61404 173.105 0.314326 177.547 0.0501671 182.128C-0.213673 186.709 0.56603 191.29 2.32187 195.472C4.07772 199.653 6.75572 203.307 10.1227 206.116C13.4897 208.925 17.4428 210.802 21.6374 211.584C25.832 212.366 30.1407 212.029 34.1868 210.603C38.2332 209.177 41.894 206.705 44.8499 203.402C49.3467 198.153 54.7596 193.911 60.7787 190.921C66.7981 187.931 73.3053 186.25 79.9278 185.976C86.5503 185.702 93.1581 186.839 99.3724 189.322C105.587 191.806 111.285 195.587 116.142 200.449C119.304 203.53 123.118 205.728 127.25 206.851C131.382 207.975 135.707 207.99 139.845 206.895C143.984 205.8 147.81 203.628 150.99 200.569C154.171 197.51 156.607 193.658 158.087 189.349C159.567 185.04 160.045 180.406 159.48 175.852C158.915 171.297 157.323 166.962 154.844 163.224C152.366 159.487 149.076 156.461 145.261 154.412C141.447 152.362 137.225 151.351 132.965 151.468Z" fill="white"/>
</svg>
