<svg id="visual" viewBox="0 0 900 100" width="900" height="100" xmlns="http://www.w3.org/2000/svg" xmlns:xlink="http://www.w3.org/1999/xlink" version="1.1"><rect x="0" y="0" width="900" height="100" fill="#344E41"></rect><path d="M0 19L12.5 24.3C25 29.7 50 40.3 75 47.8C100 55.3 125 59.7 150 58C175 56.3 200 48.7 225 39C250 29.3 275 17.7 300 25C325 32.3 350 58.7 375 69.5C400 80.3 425 75.7 450 66.5C475 57.3 500 43.7 525 42.3C550 41 575 52 600 49.5C625 47 650 31 675 30.2C700 29.3 725 43.7 750 51.7C775 59.7 800 61.3 825 65.2C850 69 875 75 887.5 78L900 81L900 101L887.5 101C875 101 850 101 825 101C800 101 775 101 750 101C725 101 700 101 675 101C650 101 625 101 600 101C575 101 550 101 525 101C500 101 475 101 450 101C425 101 400 101 375 101C350 101 325 101 300 101C275 101 250 101 225 101C200 101 175 101 150 101C125 101 100 101 75 101C50 101 25 101 12.5 101L0 101Z" fill="#171611" stroke-linecap="round" stroke-linejoin="miter"></path></svg>